<svg width="200" height="127" viewBox="0 0 200 127" fill="none" xmlns="http://www.w3.org/2000/svg">
    <path d="M78.5789 90.187H80.8819V124.364H78.5789V90.187Z" fill="#02C4EC"/>
    <path d="M102.203 122.844C101.62 123.396 100.883 123.826 99.9925 124.133C99.1327 124.41 98.2269 124.548 97.275 124.548C95.1869 124.548 93.5748 123.98 92.4387 122.844C91.3025 121.677 90.7344 120.065 90.7344 118.007V102.301H86.3127V100.32H90.7344V95.0694H93.0374V100.32H100.683V102.301H93.0374V117.777C93.0374 119.343 93.4059 120.541 94.1429 121.37C94.9106 122.168 96.0314 122.567 97.5053 122.567C99.0099 122.567 100.254 122.122 101.236 121.232L102.203 122.844Z" fill="#02C4EC"/>
    <path d="M128.084 112.895H107.403C107.464 114.768 107.94 116.441 108.831 117.915C109.721 119.358 110.919 120.479 112.423 121.278C113.959 122.076 115.678 122.475 117.582 122.475C119.148 122.475 120.591 122.199 121.912 121.646C123.263 121.063 124.384 120.218 125.274 119.113L126.61 120.633C125.566 121.892 124.246 122.859 122.649 123.535C121.083 124.21 119.378 124.548 117.536 124.548C115.141 124.548 113.007 124.026 111.134 122.982C109.261 121.938 107.787 120.495 106.712 118.652C105.668 116.81 105.146 114.706 105.146 112.342C105.146 110.008 105.637 107.92 106.62 106.078C107.633 104.205 109.015 102.746 110.765 101.702C112.516 100.658 114.481 100.136 116.661 100.136C118.841 100.136 120.791 100.658 122.511 101.702C124.261 102.715 125.627 104.143 126.61 105.986C127.623 107.828 128.13 109.916 128.13 112.25L128.084 112.895ZM116.661 102.163C114.972 102.163 113.452 102.547 112.101 103.314C110.75 104.051 109.66 105.111 108.831 106.492C108.032 107.843 107.572 109.379 107.449 111.098H125.873C125.781 109.379 125.32 107.843 124.491 106.492C123.662 105.141 122.572 104.082 121.221 103.314C119.87 102.547 118.35 102.163 116.661 102.163Z" fill="#02C4EC"/>
    <path d="M137.465 105.571C138.202 103.821 139.354 102.485 140.92 101.564C142.486 100.612 144.39 100.136 146.631 100.136V102.393L146.079 102.347C143.407 102.347 141.319 103.191 139.814 104.88C138.31 106.538 137.558 108.857 137.558 111.835V124.364H135.255V100.32H137.465V105.571Z" fill="#02C4EC"/>
    <path d="M103.912 51.9559H106.215V75.9993H103.912V51.9559ZM105.063 46.1062C104.541 46.1062 104.096 45.9374 103.727 45.5996C103.359 45.2311 103.175 44.7858 103.175 44.2638C103.175 43.7418 103.359 43.2966 103.727 42.9281C104.096 42.5596 104.541 42.3754 105.063 42.3754C105.585 42.3754 106.03 42.5596 106.399 42.9281C106.767 43.2659 106.951 43.6958 106.951 44.2178C106.951 44.7398 106.767 45.185 106.399 45.5535C106.03 45.922 105.585 46.1062 105.063 46.1062Z" fill="#02C4EC"/>
    <path d="M122.001 76.1836C120.067 76.1836 118.224 75.8918 116.474 75.3084C114.724 74.725 113.357 73.988 112.375 73.0975L113.434 71.2551C114.417 72.0842 115.676 72.7751 117.211 73.3278C118.777 73.8806 120.405 74.1569 122.093 74.1569C124.519 74.1569 126.3 73.7577 127.436 72.9594C128.603 72.161 129.187 71.0555 129.187 69.643C129.187 68.6297 128.864 67.8313 128.219 67.2479C127.605 66.6645 126.838 66.2346 125.916 65.9582C124.995 65.6818 123.721 65.3901 122.093 65.0831C120.19 64.7453 118.654 64.3768 117.487 63.9776C116.321 63.5784 115.323 62.9336 114.493 62.0431C113.664 61.1526 113.25 59.9243 113.25 58.3583C113.25 56.4544 114.033 54.8884 115.599 53.6601C117.196 52.4011 119.453 51.7716 122.37 51.7716C123.905 51.7716 125.425 51.9866 126.93 52.4165C128.434 52.8464 129.663 53.4145 130.615 54.1207L129.555 55.9631C128.573 55.2569 127.452 54.7195 126.193 54.351C124.934 53.9825 123.644 53.7983 122.324 53.7983C120.082 53.7983 118.393 54.2128 117.257 55.0419C116.121 55.871 115.553 56.9611 115.553 58.3122C115.553 59.3869 115.875 60.2314 116.52 60.8455C117.165 61.4289 117.948 61.8742 118.869 62.1813C119.821 62.4576 121.142 62.7647 122.83 63.1025C124.704 63.4402 126.208 63.8087 127.344 64.2079C128.511 64.5764 129.494 65.1905 130.292 66.0503C131.091 66.9101 131.49 68.0923 131.49 69.597C131.49 71.5929 130.661 73.1896 129.002 74.3872C127.344 75.5848 125.011 76.1836 122.001 76.1836Z" fill="#02C4EC"/>
    <path d="M137.917 51.9559H140.22V75.9993H137.917V51.9559ZM139.068 46.1062C138.546 46.1062 138.101 45.9374 137.733 45.5996C137.364 45.2311 137.18 44.7858 137.18 44.2638C137.18 43.7418 137.364 43.2966 137.733 42.9281C138.101 42.5596 138.546 42.3754 139.068 42.3754C139.59 42.3754 140.036 42.5596 140.404 42.9281C140.773 43.2659 140.957 43.6958 140.957 44.2178C140.957 44.7398 140.773 45.185 140.404 45.5535C140.036 45.922 139.59 46.1062 139.068 46.1062Z" fill="#02C4EC"/>
    <path d="M159.323 76.1836C157.051 76.1836 154.993 75.6615 153.151 74.6175C151.339 73.5735 149.911 72.1303 148.867 70.2879C147.823 68.4147 147.301 66.3113 147.301 63.9776C147.301 61.6439 147.823 59.5558 148.867 57.7134C149.911 55.8403 151.339 54.3817 153.151 53.3377C154.993 52.2937 157.051 51.7716 159.323 51.7716C161.595 51.7716 163.637 52.2937 165.449 53.3377C167.291 54.3817 168.735 55.8403 169.779 57.7134C170.823 59.5558 171.345 61.6439 171.345 63.9776C171.345 66.3113 170.823 68.4147 169.779 70.2879C168.735 72.1303 167.291 73.5735 165.449 74.6175C163.637 75.6615 161.595 76.1836 159.323 76.1836ZM159.323 74.1109C161.165 74.1109 162.808 73.681 164.251 72.8212C165.725 71.9614 166.877 70.7638 167.706 69.2285C168.566 67.6931 168.996 65.9428 168.996 63.9776C168.996 62.0124 168.566 60.2621 167.706 58.7267C166.877 57.1914 165.725 55.9938 164.251 55.134C162.808 54.2743 161.165 53.8444 159.323 53.8444C157.481 53.8444 155.822 54.2743 154.349 55.134C152.905 55.9938 151.754 57.1914 150.894 58.7267C150.065 60.2621 149.65 62.0124 149.65 63.9776C149.65 65.9428 150.065 67.6931 150.894 69.2285C151.754 70.7638 152.905 71.9614 154.349 72.8212C155.822 73.681 157.481 74.1109 159.323 74.1109Z" fill="#02C4EC"/>
    <path d="M190.235 51.7716C193.244 51.7716 195.624 52.6468 197.374 54.3971C199.124 56.1474 200 58.6653 200 61.951V75.9993H197.697V62.1352C197.697 59.433 197.006 57.3756 195.624 55.9631C194.273 54.5506 192.369 53.8444 189.912 53.8444C187.087 53.8444 184.861 54.6888 183.234 56.3777C181.606 58.0665 180.792 60.3389 180.792 63.1946V75.9993H178.489V51.9559H180.7V57.1607C181.529 55.4718 182.758 54.1514 184.385 53.1995C186.043 52.2476 187.993 51.7716 190.235 51.7716Z" fill="#02C4EC"/>
    <path d="M0.468567 117.902L30.7696 45.1798C31.6975 42.9318 33.9133 41.4547 36.3563 41.4547C37.5522 41.4548 38.7213 41.8087 39.7165 42.4719C40.7116 43.1352 41.4883 44.078 41.9487 45.1817L72.2497 117.904C73.537 120.993 72.0782 124.542 68.9886 125.828C65.8865 127.127 62.3451 125.653 61.0649 122.567L36.3563 63.2714L11.6421 122.567C10.3607 125.654 6.81852 127.129 3.71835 125.828C0.639008 124.54 -0.819229 120.993 0.468567 117.902Z" fill="#02C4EC"/>
    <ellipse cx="36.848" cy="99.0294" rx="4.60602" ry="4.60602" fill="#02C4EC"/>
    <path d="M109.097 8.39909L78.7961 81.1215C77.8681 83.3694 75.6524 84.8466 73.2094 84.8466C72.0135 84.8465 70.8443 84.4925 69.8492 83.8293C68.854 83.1661 68.0774 82.2233 67.6169 81.1196L37.3159 8.3972C36.0287 5.30839 37.4875 1.75938 40.5771 0.473485C43.6792 -0.825481 47.2206 0.648095 48.5008 3.73463L73.2094 63.0299L97.9236 3.73463C99.205 0.647716 102.747 -0.827564 105.847 0.473485C108.927 1.76128 110.385 5.30839 109.097 8.39909Z" fill="#02C4EC"/>
</svg>
