<svg width="50" height="40" viewBox="0 0 50 40" fill="none" xmlns="http://www.w3.org/2000/svg">
<path d="M27.872 8.6V31H25.568V10.648H20.288V8.6H27.872ZM48.5225 28.952V31H32.8105V29.368L42.1225 20.248C43.2958 19.096 44.0852 18.104 44.4905 17.272C44.9172 16.4187 45.1305 15.5653 45.1305 14.712C45.1305 13.3893 44.6718 12.3653 43.7545 11.64C42.8585 10.8933 41.5678 10.52 39.8825 10.52C37.2585 10.52 35.2212 11.352 33.7705 13.016L32.1385 11.608C33.0132 10.584 34.1225 9.79467 35.4665 9.24C36.8318 8.68533 38.3678 8.408 40.0745 8.408C42.3572 8.408 44.1598 8.952 45.4825 10.04C46.8265 11.1067 47.4985 12.5787 47.4985 14.456C47.4985 15.608 47.2425 16.7173 46.7305 17.784C46.2185 18.8507 45.2478 20.0773 43.8185 21.464L36.2025 28.952H48.5225Z" fill="#0096FF"/>
<path d="M16.16 19.744V21.856L2.24 27.424V25.44L14.016 20.8L2.24 16.16V14.144L16.16 19.744Z" fill="#0096FF"/>
</svg>
