<?xml version="1.0" encoding="utf-8"?>
<!-- Generator: Adobe Illustrator 23.0.1, SVG Export Plug-In . SVG Version: 6.00 Build 0)  -->
<svg version="1.1" id="Layer_1" xmlns="http://www.w3.org/2000/svg" xmlns:xlink="http://www.w3.org/1999/xlink" x="0px" y="0px"
	 viewBox="0 0 200 300" style="enable-background:new 0 0 800 300;" xml:space="preserve">
<style type="text/css">
	.st0{fill:#333333;}
	.st1{fill:#00ACD7;}
</style>
<path class="st1" d="M210.2,115.4H80.8c-1,0-1.9,0.5-2.5,1.3l-6.5,9.3c-1.4,2,0,4.7,2.5,4.7l134.4-0.1c1.5,0,2.7-1.1,3-2.5l1.5-9.2
	C213.5,117.1,212.1,115.4,210.2,115.4z"/>
<path class="st1" d="M205.5,147.1h-169c-1,0-1.9,0.5-2.4,1.2l-6.7,9.2c-1.4,2,0,4.8,2.4,4.8l174.2-0.1c1.5,0,2.7-1.1,3-2.5l1.5-9.1
	C208.7,148.7,207.3,147.1,205.5,147.1z"/>
<path class="st1" d="M200.7,178.7h-69.2c-1,0-2,0.5-2.5,1.4l-6.1,9.3c-1.3,2,0.1,4.6,2.5,4.6l73.8-0.1c1.5,0,2.7-1.1,3-2.5l1.5-9.2
	C204,180.4,202.6,178.7,200.7,178.7z"/>
</svg>
