<svg width="42" height="42" viewBox="0 0 42 42" fill="none" xmlns="http://www.w3.org/2000/svg">
<path d="M35.4375 7.21875H6.5625C6.04036 7.21875 5.5396 7.42617 5.17038 7.79538C4.80117 8.1646 4.59375 8.66536 4.59375 9.1875V32.8125C4.59375 33.3346 4.80117 33.8354 5.17038 34.2046C5.5396 34.5738 6.04036 34.7812 6.5625 34.7812H8.76094C8.88456 34.7787 9.00508 34.7421 9.10928 34.6756C9.21347 34.609 9.29731 34.515 9.35156 34.4039C10.0428 32.9437 11.1344 31.7097 12.4995 30.8456C13.8646 29.9815 15.4469 29.5228 17.0625 29.5228C18.6781 29.5228 20.2604 29.9815 21.6255 30.8456C22.9906 31.7097 24.0822 32.9437 24.7734 34.4039C24.8277 34.515 24.9115 34.609 25.0157 34.6756C25.1199 34.7421 25.2404 34.7787 25.3641 34.7812H35.4375C35.9596 34.7812 36.4604 34.5738 36.8296 34.2046C37.1988 33.8354 37.4062 33.3346 37.4062 32.8125V9.1875C37.4062 8.66536 37.1988 8.1646 36.8296 7.79538C36.4604 7.42617 35.9596 7.21875 35.4375 7.21875V7.21875ZM36.0938 32.8125C36.0938 32.9865 36.0246 33.1535 35.9015 33.2765C35.7785 33.3996 35.6115 33.4688 35.4375 33.4688H25.7742C24.5676 31.1992 22.5263 29.4874 20.0813 28.6945C21.1932 28.0333 22.0572 27.0253 22.5407 25.8254C23.0242 24.6255 23.1004 23.3001 22.7575 22.0527C22.4147 20.8053 21.6717 19.7049 20.6429 18.9207C19.614 18.1365 18.3562 17.7118 17.0625 17.7118C15.7688 17.7118 14.511 18.1365 13.4821 18.9207C12.4533 19.7049 11.7103 20.8053 11.3675 22.0527C11.0246 23.3001 11.1008 24.6255 11.5843 25.8254C12.0678 27.0253 12.9318 28.0333 14.0437 28.6945C11.5987 29.4874 9.55744 31.1992 8.35078 33.4688H6.5625C6.38976 33.4646 6.22525 33.3941 6.10307 33.2719C5.98089 33.1497 5.91041 32.9852 5.90625 32.8125V9.1875C5.90625 9.01345 5.97539 8.84653 6.09846 8.72346C6.22153 8.60039 6.38845 8.53125 6.5625 8.53125H35.4375C35.6115 8.53125 35.7785 8.60039 35.9015 8.72346C36.0246 8.84653 36.0938 9.01345 36.0938 9.1875V32.8125ZM17.0625 28.2188C16.1539 28.2188 15.2658 27.9493 14.5103 27.4446C13.7549 26.9398 13.1661 26.2223 12.8184 25.383C12.4707 24.5436 12.3798 23.6199 12.557 22.7288C12.7343 21.8377 13.1718 21.0192 13.8142 20.3767C14.4567 19.7343 15.2752 19.2968 16.1663 19.1195C17.0574 18.9423 17.9811 19.0332 18.8205 19.3809C19.6598 19.7286 20.3773 20.3174 20.8821 21.0728C21.3868 21.8283 21.6562 22.7164 21.6562 23.625C21.6519 24.842 21.1666 26.0079 20.306 26.8685C19.4454 27.7291 18.2795 28.2144 17.0625 28.2188V28.2188ZM32.1562 13.125V28.875C32.1562 29.049 32.0871 29.216 31.964 29.339C31.841 29.4621 31.674 29.5312 31.5 29.5312H28.875C28.701 29.5312 28.534 29.4621 28.411 29.339C28.2879 29.216 28.2188 29.049 28.2188 28.875C28.2188 28.701 28.2879 28.534 28.411 28.411C28.534 28.2879 28.701 28.2188 28.875 28.2188H30.8438V13.7812H11.1562V15.75C11.1562 15.924 11.0871 16.091 10.964 16.214C10.841 16.3371 10.674 16.4062 10.5 16.4062C10.326 16.4062 10.159 16.3371 10.036 16.214C9.91289 16.091 9.84375 15.924 9.84375 15.75V13.125C9.84375 12.951 9.91289 12.784 10.036 12.661C10.159 12.5379 10.326 12.4688 10.5 12.4688H31.5C31.674 12.4688 31.841 12.5379 31.964 12.661C32.0871 12.784 32.1562 12.951 32.1562 13.125Z" fill="#0096FF"/>
</svg>
