<svg width="127" height="53" viewBox="0 0 127 53" fill="none" xmlns="http://www.w3.org/2000/svg">
<path d="M52.751 17.2798L56.1571 8.49577L59.4441 17.2798H52.751ZM55.3235 6.86377L48.4874 23.9998H50.2024L52.2508 18.6718H59.992L62.0642 23.9998H63.803L57.1337 6.86377H55.3235Z" fill="#F8F8F8"/>
<path d="M67.7303 6.86377V23.9998H78.8776V22.6078H69.35V6.86377H67.7303Z" fill="#F8F8F8"/>
<path d="M78.9089 6.86377V8.25577H84.8159V23.9998H86.4356V8.25577H92.3665V6.86377H78.9089Z" fill="#F8F8F8"/>
<path d="M96.3363 6.86377V23.9998H108.198V22.6078H97.956V15.8398H107.436V14.4478H97.956V8.25577H108.079V6.86377H96.3363Z" fill="#F8F8F8"/>
<path d="M114.457 14.9998V8.25577H120.507C121.746 8.25577 122.667 8.55977 123.27 9.16777C123.874 9.77577 124.175 10.6078 124.175 11.6638C124.175 12.1918 124.072 12.6638 123.866 13.0798C123.675 13.4798 123.413 13.8238 123.08 14.1118C122.746 14.3998 122.357 14.6238 121.912 14.7838C121.468 14.9278 120.999 14.9998 120.507 14.9998H114.457ZM112.837 6.86377V23.9998H114.457V16.3918H120.602C121.365 16.3598 121.96 16.4878 122.389 16.7758C122.833 17.0638 123.167 17.4478 123.389 17.9278C123.627 18.3918 123.778 18.9278 123.842 19.5358C123.921 20.1278 123.977 20.7278 124.009 21.3358C124.024 21.5118 124.04 21.7198 124.056 21.9598C124.072 22.1998 124.088 22.4478 124.104 22.7038C124.136 22.9438 124.175 23.1838 124.223 23.4238C124.286 23.6478 124.366 23.8398 124.461 23.9998H126.247C126.073 23.7918 125.93 23.5038 125.819 23.1358C125.723 22.7518 125.652 22.3518 125.604 21.9358C125.557 21.5038 125.525 21.0798 125.509 20.6638C125.493 20.2478 125.477 19.8958 125.461 19.6078C125.43 19.0958 125.358 18.6238 125.247 18.1918C125.152 17.7438 124.985 17.3518 124.747 17.0158C124.525 16.6798 124.231 16.4078 123.866 16.1998C123.5 15.9758 123.04 15.8238 122.484 15.7438V15.6958C123.58 15.4718 124.405 14.9598 124.961 14.1598C125.517 13.3598 125.795 12.4158 125.795 11.3278C125.795 10.5598 125.652 9.89577 125.366 9.33577C125.096 8.75977 124.723 8.29577 124.247 7.94377C123.786 7.57577 123.238 7.30377 122.603 7.12777C121.984 6.95177 121.325 6.86377 120.626 6.86377H112.837Z" fill="#F8F8F8"/>
<path d="M48 28.3432L54.2471 44.6797H56.1166L62.3874 28.3432H60.6836L55.241 42.9637H55.1937L49.7038 28.3432H48Z" fill="#F8F8F8"/>
<path d="M65.1743 28.3432V44.6797H66.7834V28.3432H65.1743Z" fill="#F8F8F8"/>
<path d="M72.2421 39.3028H70.633C70.5856 40.3096 70.7197 41.1714 71.0352 41.8883C71.3665 42.6052 71.8319 43.1925 72.4314 43.6501C73.0308 44.1077 73.7565 44.4509 74.6084 44.6797C75.4603 44.8932 76.3832 45 77.377 45C78.3709 45 79.2228 44.9085 79.9327 44.7254C80.6426 44.5576 81.2342 44.3365 81.7074 44.0619C82.1965 43.7721 82.5751 43.4518 82.8433 43.1009C83.1272 42.7501 83.3402 42.4069 83.4822 42.0713C83.64 41.7205 83.7346 41.3926 83.7662 41.0875C83.8135 40.7824 83.8371 40.5384 83.8371 40.3553C83.8371 39.6842 83.7188 39.1122 83.4822 38.6393C83.2613 38.1664 82.9458 37.7699 82.5357 37.4495C82.1413 37.114 81.6759 36.8394 81.1395 36.6258C80.6189 36.397 80.0589 36.2064 79.4594 36.0538L75.342 35.07C74.9949 34.9937 74.6636 34.8946 74.3481 34.7725C74.0484 34.6505 73.7802 34.4904 73.5436 34.2921C73.3069 34.0938 73.1176 33.8573 72.9756 33.5828C72.8494 33.293 72.7863 32.9574 72.7863 32.576C72.7863 31.9659 72.9046 31.4549 73.1413 31.0431C73.3779 30.6312 73.6855 30.3033 74.0641 30.0592C74.4585 29.7999 74.9081 29.6169 75.413 29.5101C75.9336 29.3881 76.4699 29.3271 77.0221 29.3271C77.6215 29.3271 78.1895 29.4109 78.7258 29.5787C79.278 29.7313 79.7591 29.9677 80.1693 30.288C80.5953 30.5931 80.9344 30.9821 81.1868 31.4549C81.455 31.9125 81.6049 32.454 81.6364 33.0794H83.2456C83.2456 32.2405 83.072 31.5083 82.725 30.8829C82.3937 30.2423 81.9441 29.7084 81.3761 29.2813C80.8082 28.8542 80.1456 28.5339 79.3884 28.3203C78.6312 28.1068 77.8345 28 76.9984 28C75.8152 28 74.845 28.1678 74.0878 28.5034C73.3306 28.8237 72.7311 29.2203 72.2894 29.6931C71.8635 30.166 71.5716 30.6694 71.4138 31.2032C71.2561 31.7371 71.1772 32.2023 71.1772 32.5989C71.1772 33.2396 71.2798 33.7811 71.4848 34.2234C71.7057 34.6658 71.9897 35.0395 72.3367 35.3445C72.6838 35.6496 73.0861 35.8937 73.5436 36.0767C74.0168 36.2598 74.498 36.4123 74.987 36.5343L78.7495 37.4266C79.1439 37.5182 79.5462 37.6402 79.9563 37.7927C80.3665 37.93 80.7372 38.1131 81.0685 38.3419C81.4156 38.5707 81.6917 38.8528 81.8967 39.1884C82.1176 39.524 82.228 39.9206 82.228 40.3782C82.228 40.9731 82.0782 41.4841 81.7784 41.9112C81.4787 42.323 81.1001 42.6662 80.6426 42.9408C80.2009 43.2001 79.7197 43.3908 79.1991 43.5128C78.6785 43.6348 78.1974 43.6958 77.7556 43.6958C76.9826 43.6958 76.257 43.6272 75.5786 43.4899C74.9003 43.3374 74.3087 43.0933 73.8039 42.7577C73.3148 42.4222 72.9283 41.9722 72.6443 41.4078C72.3604 40.8434 72.2263 40.1418 72.2421 39.3028Z" fill="#F8F8F8"/>
<path d="M87.6915 28.3432V44.6797H89.3006V28.3432H87.6915Z" fill="#F8F8F8"/>
<path d="M94.712 36.5114C94.712 35.6115 94.8303 34.7344 95.0669 33.8802C95.3193 33.026 95.6979 32.2633 96.2028 31.5922C96.7234 30.9058 97.3859 30.3567 98.1905 29.9448C98.995 29.533 99.9574 29.3271 101.077 29.3271C102.197 29.3271 103.152 29.533 103.941 29.9448C104.745 30.3567 105.4 30.9058 105.905 31.5922C106.425 32.2633 106.804 33.026 107.041 33.8802C107.293 34.7344 107.419 35.6115 107.419 36.5114C107.419 37.3961 107.293 38.2732 107.041 39.1427C106.804 39.9969 106.425 40.7672 105.905 41.4536C105.4 42.1247 104.745 42.6662 103.941 43.0781C103.152 43.4899 102.197 43.6958 101.077 43.6958C99.9574 43.6958 98.995 43.4899 98.1905 43.0781C97.3859 42.6662 96.7234 42.1247 96.2028 41.4536C95.6979 40.7672 95.3193 39.9969 95.0669 39.1427C94.8303 38.2732 94.712 37.3961 94.712 36.5114ZM93.1029 36.5114C93.1029 37.6402 93.2685 38.7156 93.5998 39.7376C93.9311 40.7595 94.428 41.6595 95.0906 42.4374C95.7532 43.2153 96.5814 43.8407 97.5752 44.3136C98.5849 44.7712 99.7523 45 101.077 45C102.403 45 103.562 44.7712 104.556 44.3136C105.55 43.8407 106.378 43.2153 107.041 42.4374C107.703 41.6595 108.2 40.7595 108.531 39.7376C108.863 38.7156 109.028 37.6402 109.028 36.5114C109.028 35.3827 108.863 34.3073 108.531 33.2853C108.2 32.2633 107.703 31.3634 107.041 30.5855C106.378 29.7923 105.55 29.1669 104.556 28.7093C103.562 28.2364 102.403 28 101.077 28C99.7523 28 98.5849 28.2364 97.5752 28.7093C96.5814 29.1669 95.7532 29.7923 95.0906 30.5855C94.428 31.3634 93.9311 32.2633 93.5998 33.2853C93.2685 34.3073 93.1029 35.3827 93.1029 36.5114Z" fill="#F8F8F8"/>
<path d="M112.701 28.3432V44.6797H114.31V30.86H114.358L124.202 44.6797H126V28.3432H124.391V42.1629H124.344L114.5 28.3432H112.701Z" fill="#F8F8F8"/>
<path d="M45.984 13.8608L43.8275 13.8712L41.6711 13.8816L28.4926 47.3285L30.7191 53.0003L45.984 13.8608Z" fill="#02C4EC"/>
<path d="M45.984 13.8608L43.8275 13.8712L41.6711 13.8816L28.4926 47.3285L30.7191 53.0003L45.984 13.8608Z" fill="#02C4EC"/>
<path d="M14.0628 10.6892L16.2463 10.6852L18.4298 10.6812L32.8096 47.6528L30.7188 52.9998L14.0628 10.6892Z" fill="#02C4EC"/>
<path d="M14.0628 10.6892L16.2463 10.6852L18.4298 10.6812L32.8096 47.6528L30.7188 52.9998L14.0628 10.6892Z" fill="#02C4EC"/>
<path fill-rule="evenodd" clip-rule="evenodd" d="M14.4949 5.31094L16.5726 0L18.6503 5.31094L31.6213 38.4664L33.1452 42.3617H28.9898H26.5308L24.996 38.4664H27.4659L16.5726 10.6219L5.67938 38.4664H24.5951L26.1065 42.3617H4.15546H0L1.52392 38.4664L14.4949 5.31094Z" fill="#02C4EC"/>
</svg>
