<svg width="198" height="250" viewBox="0 0 198 250" fill="none" xmlns="http://www.w3.org/2000/svg">
<path d="M13.9294 239.758H4.89281L3.02233 244.009H0.520264L8.22081 227.004H10.6257L18.3505 244.009H15.7999L13.9294 239.758ZM13.0792 237.814L9.41111 229.482L5.74303 237.814H13.0792Z" fill="white"/>
<path d="M23.3163 227.004H25.7455V241.895H34.9522V244.009H23.3163V227.004Z" fill="white"/>
<path d="M41.956 229.118H36.126V227.004H50.191V229.118H44.3609V244.009H41.956V229.118Z" fill="white"/>
<path d="M67.6062 241.895V244.009H55.2659V227.004H67.2662V229.118H57.6951V234.341H66.2216V236.405H57.6951V241.895H67.6062Z" fill="white"/>
<path d="M85.3375 244.009L81.6694 238.786C81.2159 238.818 80.8596 238.835 80.6005 238.835H76.398V244.009H73.9688V227.004H80.6005C82.803 227.004 84.5358 227.531 85.799 228.583C87.0622 229.636 87.6938 231.085 87.6938 232.932C87.6938 234.243 87.3699 235.361 86.7221 236.284C86.0743 237.207 85.1512 237.879 83.9528 238.3L87.9853 244.009H85.3375ZM80.5277 236.77C82.0661 236.77 83.2402 236.438 84.05 235.774C84.8597 235.11 85.2646 234.162 85.2646 232.932C85.2646 231.701 84.8597 230.762 84.05 230.114C83.2402 229.45 82.0661 229.118 80.5277 229.118H76.398V236.77H80.5277Z" fill="white"/>
<path d="M117.77 227.004L110.312 244.009H107.908L100.426 227.004H103.049L109.171 240.972L115.341 227.004H117.77Z" fill="white"/>
<path d="M122.368 227.004H124.797V244.009H122.368V227.004Z" fill="white"/>
<path d="M137.272 244.203C135.993 244.203 134.754 244.009 133.556 243.62C132.374 243.215 131.442 242.697 130.762 242.065L131.661 240.171C132.309 240.754 133.135 241.231 134.139 241.604C135.159 241.96 136.204 242.138 137.272 242.138C138.681 242.138 139.734 241.903 140.43 241.434C141.127 240.948 141.475 240.308 141.475 239.515C141.475 238.932 141.281 238.462 140.892 238.106C140.519 237.733 140.05 237.45 139.483 237.256C138.932 237.061 138.147 236.843 137.127 236.6C135.847 236.292 134.811 235.984 134.017 235.677C133.24 235.369 132.568 234.899 132.001 234.268C131.451 233.62 131.175 232.753 131.175 231.668C131.175 230.762 131.41 229.944 131.88 229.215C132.366 228.486 133.094 227.903 134.066 227.466C135.038 227.029 136.244 226.81 137.685 226.81C138.689 226.81 139.677 226.94 140.649 227.199C141.621 227.458 142.455 227.83 143.151 228.316L142.349 230.26C141.637 229.806 140.876 229.466 140.066 229.239C139.256 228.996 138.463 228.875 137.685 228.875C136.309 228.875 135.272 229.126 134.576 229.628C133.896 230.13 133.556 230.778 133.556 231.571C133.556 232.154 133.75 232.632 134.139 233.005C134.527 233.361 135.005 233.644 135.572 233.855C136.155 234.049 136.94 234.26 137.928 234.486C139.208 234.794 140.236 235.102 141.013 235.409C141.791 235.717 142.455 236.187 143.005 236.818C143.572 237.45 143.856 238.3 143.856 239.369C143.856 240.26 143.613 241.078 143.127 241.822C142.641 242.551 141.904 243.134 140.916 243.572C139.928 243.993 138.714 244.203 137.272 244.203Z" fill="white"/>
<path d="M149.834 227.004H152.263V244.009H149.834V227.004Z" fill="white"/>
<path d="M167.459 244.203C165.743 244.203 164.196 243.831 162.819 243.086C161.443 242.325 160.358 241.28 159.564 239.952C158.787 238.624 158.398 237.142 158.398 235.507C158.398 233.871 158.787 232.389 159.564 231.061C160.358 229.733 161.443 228.697 162.819 227.952C164.196 227.191 165.743 226.81 167.459 226.81C169.16 226.81 170.698 227.191 172.075 227.952C173.451 228.697 174.528 229.733 175.305 231.061C176.083 232.373 176.471 233.855 176.471 235.507C176.471 237.158 176.083 238.648 175.305 239.976C174.528 241.288 173.451 242.325 172.075 243.086C170.698 243.831 169.16 244.203 167.459 244.203ZM167.459 242.041C168.706 242.041 169.824 241.758 170.811 241.191C171.816 240.624 172.601 239.847 173.168 238.859C173.751 237.855 174.042 236.737 174.042 235.507C174.042 234.276 173.751 233.166 173.168 232.179C172.601 231.175 171.816 230.389 170.811 229.822C169.824 229.255 168.706 228.972 167.459 228.972C166.212 228.972 165.079 229.255 164.058 229.822C163.054 230.389 162.261 231.175 161.678 232.179C161.111 233.166 160.827 234.276 160.827 235.507C160.827 236.737 161.111 237.855 161.678 238.859C162.261 239.847 163.054 240.624 164.058 241.191C165.079 241.758 166.212 242.041 167.459 242.041Z" fill="white"/>
<path d="M197.237 227.004V244.009H195.245L185.043 231.328V244.009H182.614V227.004H184.605L194.808 239.685V227.004H197.237Z" fill="white"/>
<path d="M194.844 58.1411L185.73 58.1847L176.615 58.2283L120.915 198.529L130.325 222.321L194.844 58.1411Z" fill="#02C4EC"/>
<path d="M194.844 58.1411L185.73 58.1847L176.615 58.2283L120.915 198.529L130.325 222.321L194.844 58.1411Z" fill="#02C4EC"/>
<path d="M59.9256 44.8392L69.1543 44.8224L78.3829 44.8055L139.161 199.891L130.324 222.321L59.9256 44.8392Z" fill="#02C4EC"/>
<path d="M59.9256 44.8392L69.1543 44.8224L78.3829 44.8055L139.161 199.891L130.324 222.321L59.9256 44.8392Z" fill="#02C4EC"/>
<path fill-rule="evenodd" clip-rule="evenodd" d="M61.7519 22.278L70.5337 0L79.3155 22.278L134.139 161.356L140.58 177.696H123.016H112.623L106.136 161.356H116.575L70.5337 44.5559L24.4921 161.356H104.442L110.83 177.696H18.0511H0.487549L6.92858 161.356L61.7519 22.278Z" fill="#02C4EC"/>
</svg>
