<svg width="53" height="40" viewBox="0 0 53 40" fill="none" xmlns="http://www.w3.org/2000/svg">
<path d="M27.872 8.6V31H25.568V10.648H20.288V8.6H27.872ZM42.1545 31.192C40.4265 31.192 38.8798 30.7333 37.5145 29.816C36.1705 28.8987 35.1145 27.5867 34.3465 25.88C33.5998 24.152 33.2265 22.1253 33.2265 19.8C33.2265 17.4747 33.5998 15.4587 34.3465 13.752C35.1145 12.024 36.1705 10.7013 37.5145 9.784C38.8798 8.86667 40.4265 8.408 42.1545 8.408C43.8825 8.408 45.4185 8.86667 46.7625 9.784C48.1278 10.7013 49.1945 12.024 49.9625 13.752C50.7305 15.4587 51.1145 17.4747 51.1145 19.8C51.1145 22.1253 50.7305 24.152 49.9625 25.88C49.1945 27.5867 48.1278 28.8987 46.7625 29.816C45.4185 30.7333 43.8825 31.192 42.1545 31.192ZM42.1545 29.08C43.4558 29.08 44.5972 28.7173 45.5785 27.992C46.5812 27.2667 47.3598 26.2107 47.9145 24.824C48.4692 23.4373 48.7465 21.7627 48.7465 19.8C48.7465 17.8373 48.4692 16.1627 47.9145 14.776C47.3598 13.3893 46.5812 12.3333 45.5785 11.608C44.5972 10.8827 43.4558 10.52 42.1545 10.52C40.8532 10.52 39.7012 10.8827 38.6985 11.608C37.7172 12.3333 36.9492 13.3893 36.3945 14.776C35.8398 16.1627 35.5625 17.8373 35.5625 19.8C35.5625 21.7627 35.8398 23.4373 36.3945 24.824C36.9492 26.2107 37.7172 27.2667 38.6985 27.992C39.7012 28.7173 40.8532 29.08 42.1545 29.08Z" fill="#0096FF"/>
<path d="M16.16 19.744V21.856L2.24 27.424V25.44L14.016 20.8L2.24 16.16V14.144L16.16 19.744Z" fill="#0096FF"/>
</svg>
